<svg width="732" height="874" viewBox="0 0 732 874" fill="none" xmlns="http://www.w3.org/2000/svg">
<g clip-path="url(#clip0_94_15)">
<path d="M365.896 0L731.792 633.75C731.792 633.75 566.896 440.75 365.896 440.75C164.896 440.75 0 633.75 0 633.75L365.896 0Z" fill="#FF8000"/>
<path d="M363.896 464.498C569.396 466.822 731.396 668.479 731.396 668.479H0.395508C0.395508 668.479 158.396 462.174 363.896 464.498Z" fill="#FF8000"/>
<mask id="path-3-outside-1_94_15" maskUnits="userSpaceOnUse" x="5" y="771" width="721" height="105" fill="black">
<rect fill="white" x="5" y="771" width="721" height="105"/>
<path d="M81.7101 874L74.3706 849.904H37.4657L30.1262 874H7L42.7279 772.355H68.9699L104.836 874H81.7101ZM69.2469 831.902L61.9074 808.36C61.4458 806.791 60.8227 804.783 60.0379 802.336C59.2994 799.844 58.5377 797.328 57.753 794.789C57.0145 792.204 56.4144 789.966 55.9528 788.073C55.4912 789.966 54.8449 792.32 54.014 795.135C53.2293 797.905 52.4677 800.536 51.7291 803.029C50.9906 805.522 50.4597 807.299 50.1366 808.36L42.8664 831.902H69.2469ZM366.941 772.771C380.004 772.771 389.536 775.587 395.537 781.218C401.538 786.804 404.538 794.512 404.538 804.344C404.538 808.776 403.869 813.023 402.53 817.085C401.191 821.101 398.999 824.678 395.952 827.817C392.952 830.956 388.936 833.448 383.905 835.295C378.873 837.095 372.665 837.995 365.279 837.995H356.07V874H334.606V772.771H366.941ZM365.833 790.358H356.07V820.408H363.132C367.148 820.408 370.633 819.877 373.588 818.816C376.542 817.754 378.827 816.092 380.443 813.83C382.058 811.568 382.866 808.66 382.866 805.106C382.866 800.121 381.481 796.428 378.712 794.028C375.942 791.581 371.649 790.358 365.833 790.358ZM723.142 874H698.77L662.073 822.693V874H640.608V772.771H662.073V821.793L698.354 772.771H721.204L684.299 821.378L723.142 874Z"/>
</mask>
<path d="M81.7101 874L74.3706 849.904H37.4657L30.1262 874H7L42.7279 772.355H68.9699L104.836 874H81.7101ZM69.2469 831.902L61.9074 808.36C61.4458 806.791 60.8227 804.783 60.0379 802.336C59.2994 799.844 58.5377 797.328 57.753 794.789C57.0145 792.204 56.4144 789.966 55.9528 788.073C55.4912 789.966 54.8449 792.32 54.014 795.135C53.2293 797.905 52.4677 800.536 51.7291 803.029C50.9906 805.522 50.4597 807.299 50.1366 808.36L42.8664 831.902H69.2469ZM366.941 772.771C380.004 772.771 389.536 775.587 395.537 781.218C401.538 786.804 404.538 794.512 404.538 804.344C404.538 808.776 403.869 813.023 402.53 817.085C401.191 821.101 398.999 824.678 395.952 827.817C392.952 830.956 388.936 833.448 383.905 835.295C378.873 837.095 372.665 837.995 365.279 837.995H356.07V874H334.606V772.771H366.941ZM365.833 790.358H356.07V820.408H363.132C367.148 820.408 370.633 819.877 373.588 818.816C376.542 817.754 378.827 816.092 380.443 813.83C382.058 811.568 382.866 808.66 382.866 805.106C382.866 800.121 381.481 796.428 378.712 794.028C375.942 791.581 371.649 790.358 365.833 790.358ZM723.142 874H698.77L662.073 822.693V874H640.608V772.771H662.073V821.793L698.354 772.771H721.204L684.299 821.378L723.142 874Z" fill="#FF8000"/>
<path d="M81.7101 874L80.5704 874.347L80.8276 875.191H81.7101V874ZM74.3706 849.904L75.5103 849.557L75.2532 848.713H74.3706V849.904ZM37.4657 849.904V848.713H36.5831L36.326 849.557L37.4657 849.904ZM30.1262 874V875.191H31.0087L31.2659 874.347L30.1262 874ZM7 874L5.87605 873.605L5.31843 875.191H7V874ZM42.7279 772.355V771.164H41.8839L41.604 771.96L42.7279 772.355ZM68.9699 772.355L70.0934 771.959L69.8129 771.164H68.9699V772.355ZM104.836 874V875.191H106.52L105.96 873.604L104.836 874ZM69.2469 831.902V833.093H70.8662L70.3842 831.547L69.2469 831.902ZM61.9074 808.36L60.7645 808.697L60.7672 808.706L60.7701 808.715L61.9074 808.36ZM60.0379 802.336L58.8957 802.675L58.8994 802.688L58.9035 802.7L60.0379 802.336ZM57.753 794.789L56.6075 795.117L56.611 795.129L56.6148 795.141L57.753 794.789ZM55.9528 788.073L57.1102 787.791H54.7953L55.9528 788.073ZM54.014 795.135L52.8713 794.798L52.8678 794.811L54.014 795.135ZM50.1366 808.36L51.2749 808.712L51.2763 808.707L50.1366 808.36ZM42.8664 831.902L41.7281 831.55L41.2516 833.093H42.8664V831.902ZM81.7101 874L82.8498 873.653L75.5103 849.557L74.3706 849.904L73.231 850.252L80.5704 874.347L81.7101 874ZM74.3706 849.904V848.713H37.4657V849.904V851.096H74.3706V849.904ZM37.4657 849.904L36.326 849.557L28.9865 873.653L30.1262 874L31.2659 874.347L38.6053 850.252L37.4657 849.904ZM30.1262 874V872.809H7V874V875.191H30.1262V874ZM7 874L8.12395 874.395L43.8519 772.751L42.7279 772.355L41.604 771.96L5.87605 873.605L7 874ZM42.7279 772.355V773.547H68.9699V772.355V771.164H42.7279V772.355ZM68.9699 772.355L67.8465 772.752L103.713 874.396L104.836 874L105.96 873.604L70.0934 771.959L68.9699 772.355ZM104.836 874V872.809H81.7101V874V875.191H104.836V874ZM69.2469 831.902L70.3842 831.547L63.0448 808.006L61.9074 808.36L60.7701 808.715L68.1095 832.257L69.2469 831.902ZM61.9074 808.36L63.0504 808.024C62.585 806.442 61.9586 804.424 61.1724 801.973L60.0379 802.336L58.9035 802.7C59.6867 805.142 60.3067 807.14 60.7645 808.697L61.9074 808.36ZM60.0379 802.336L61.1802 801.998C60.4403 799.501 59.6773 796.981 58.8912 794.437L57.753 794.789L56.6148 795.141C57.3982 797.676 58.1585 800.187 58.8957 802.675L60.0379 802.336ZM57.753 794.789L58.8985 794.462C58.1628 791.887 57.567 789.664 57.1102 787.791L55.9528 788.073L54.7953 788.355C55.2617 790.267 55.8661 792.522 56.6075 795.117L57.753 794.789ZM55.9528 788.073L54.7953 787.791C54.3399 789.658 53.6993 791.993 52.8714 794.798L54.014 795.135L55.1567 795.473C55.9906 792.647 56.6425 790.273 57.1102 788.355L55.9528 788.073ZM54.014 795.135L52.8678 794.811C52.0842 797.576 51.3239 800.203 50.5869 802.69L51.7291 803.029L52.8714 803.367C53.6114 800.87 54.3744 798.234 55.1603 795.46L54.014 795.135ZM51.7291 803.029L50.5869 802.69C49.8483 805.183 49.3186 806.956 48.9969 808.013L50.1366 808.36L51.2763 808.707C51.6009 807.641 52.1328 805.86 52.8714 803.367L51.7291 803.029ZM50.1366 808.36L48.9983 808.009L41.7281 831.55L42.8664 831.902L44.0047 832.254L51.2749 808.712L50.1366 808.36ZM42.8664 831.902V833.093H69.2469V831.902V830.711H42.8664V831.902ZM395.537 781.218L394.722 782.087L394.725 782.09L395.537 781.218ZM402.53 817.085L403.66 817.461L403.662 817.457L402.53 817.085ZM395.952 827.817L395.097 826.987L395.091 826.994L395.952 827.817ZM383.905 835.295L384.306 836.417L384.315 836.413L383.905 835.295ZM356.07 837.995V836.804H354.879V837.995H356.07ZM356.07 874V875.191H357.261V874H356.07ZM334.606 874H333.414V875.191H334.606V874ZM334.606 772.771V771.58H333.414V772.771H334.606ZM356.07 790.358V789.167H354.879V790.358H356.07ZM356.07 820.408H354.879V821.6H356.07V820.408ZM378.711 794.028L377.923 794.921L377.931 794.928L378.711 794.028ZM366.941 772.771V773.962C379.871 773.962 389.04 776.755 394.722 782.087L395.537 781.218L396.352 780.35C390.032 774.418 380.137 771.58 366.941 771.58V772.771ZM395.537 781.218L394.725 782.09C400.436 787.406 403.347 794.772 403.347 804.344H404.538H405.729C405.729 794.253 402.639 786.201 396.349 780.346L395.537 781.218ZM404.538 804.344H403.347C403.347 808.654 402.696 812.774 401.399 816.712L402.53 817.085L403.662 817.457C405.041 813.271 405.729 808.898 405.729 804.344H404.538ZM402.53 817.085L401.4 816.708C400.12 820.548 398.024 823.972 395.097 826.987L395.952 827.817L396.807 828.647C399.974 825.384 402.263 821.653 403.66 817.461L402.53 817.085ZM395.952 827.817L395.091 826.994C392.242 829.974 388.394 832.378 383.494 834.176L383.905 835.295L384.315 836.413C389.478 834.518 393.661 831.938 396.814 828.64L395.952 827.817ZM383.905 835.295L383.503 834.173C378.639 835.913 372.576 836.804 365.279 836.804V837.995V839.186C372.753 839.186 379.107 838.277 384.306 836.416L383.905 835.295ZM365.279 837.995V836.804H356.07V837.995V839.186H365.279V837.995ZM356.07 837.995H354.879V874H356.07H357.261V837.995H356.07ZM356.07 874V872.809H334.606V874V875.191H356.07V874ZM334.606 874H335.797V772.771H334.606H333.414V874H334.606ZM334.606 772.771V773.962H366.941V772.771V771.58H334.606V772.771ZM365.833 790.358V789.167H356.07V790.358V791.549H365.833V790.358ZM356.07 790.358H354.879V820.408H356.07H357.261V790.358H356.07ZM356.07 820.408V821.6H363.132V820.408V819.217H356.07V820.408ZM363.132 820.408V821.6C367.249 821.6 370.877 821.056 373.991 819.937L373.588 818.816L373.185 817.694C370.39 818.699 367.048 819.217 363.132 819.217V820.408ZM373.588 818.816L373.991 819.937C377.142 818.804 379.638 817.007 381.412 814.523L380.443 813.83L379.473 813.138C378.016 815.178 375.942 816.704 373.185 817.694L373.588 818.816ZM380.443 813.83L381.412 814.523C383.208 812.009 384.057 808.839 384.057 805.106H382.866H381.675C381.675 808.481 380.909 811.128 379.473 813.138L380.443 813.83ZM382.866 805.106H384.057C384.057 799.906 382.607 795.827 379.492 793.127L378.711 794.028L377.931 794.928C380.355 797.029 381.675 800.336 381.675 805.106H382.866ZM378.711 794.028L379.5 793.135C376.418 790.412 371.781 789.167 365.833 789.167V790.358V791.549C371.517 791.549 375.466 792.75 377.923 794.921L378.711 794.028ZM723.142 874V875.191H725.503L724.101 873.292L723.142 874ZM698.77 874L697.801 874.693L698.157 875.191H698.77V874ZM662.073 822.693L663.042 822L660.881 818.98V822.693H662.073ZM662.073 874V875.191H663.264V874H662.073ZM640.608 874H639.417V875.191H640.608V874ZM640.608 772.771V771.58H639.417V772.771H640.608ZM662.073 772.771H663.264V771.58H662.073V772.771ZM662.073 821.793H660.881V825.405L663.03 822.502L662.073 821.793ZM698.354 772.771V771.58H697.754L697.397 772.062L698.354 772.771ZM721.204 772.771L722.152 773.491L723.604 771.58H721.204V772.771ZM684.299 821.378L683.35 820.657L682.81 821.367L683.34 822.085L684.299 821.378ZM723.142 874V872.809H698.77V874V875.191H723.142V874ZM698.77 874L699.739 873.307L663.042 822L662.073 822.693L661.104 823.386L697.801 874.693L698.77 874ZM662.073 822.693H660.881V874H662.073H663.264V822.693H662.073ZM662.073 874V872.809H640.608V874V875.191H662.073V874ZM640.608 874H641.799V772.771H640.608H639.417V874H640.608ZM640.608 772.771V773.962H662.073V772.771V771.58H640.608V772.771ZM662.073 772.771H660.881V821.793H662.073H663.264V772.771H662.073ZM662.073 821.793L663.03 822.502L699.312 773.48L698.354 772.771L697.397 772.062L661.115 821.084L662.073 821.793ZM698.354 772.771V773.962H721.204V772.771V771.58H698.354V772.771ZM721.204 772.771L720.255 772.051L683.35 820.657L684.299 821.378L685.247 822.098L722.152 773.491L721.204 772.771ZM684.299 821.378L683.34 822.085L722.184 874.708L723.142 874L724.101 873.292L685.257 820.67L684.299 821.378Z" fill="#FF8000" mask="url(#path-3-outside-1_94_15)"/>
<path d="M0 722H731" stroke="#FF8000" stroke-width="12"/>
</g>
<defs>
<clipPath id="clip0_94_15">
<rect width="732" height="874" fill="white"/>
</clipPath>
</defs>
</svg>
